Simulation
nRows=16
nColumns=15
endheader
time  TH_x TH_y TH_z SC_y  SC_z  SC_x  AC_y  AC_z  AC_x  GH_y  GH_z  GH_yy  EL_x  PS_y
0.0  0.000000  0.000000  0.000000  -29.084225167252928  -0.1806613063230146  2.8381090799550135  49.806996660979685  3.865929566306107  -6.443815374751378  47.6184320549489  -1.6330729430996775  -17.82349518449041  22.640289623474814  0.000000
0.031  0.000000  0.000000  0.000000  -28.764857591615293  -0.13052057738009956  2.947629721760632  49.593951479564204  3.7326248544554113  -6.610876638892024  47.48395678137779  -1.632347141012423  -17.903677853867208  22.7492600909105  0.000000
0.062  0.000000  0.000000  0.000000  -28.63529358786958  -0.12180715215563058  3.044977654350575  49.435595488447845  3.6413385416944606  -6.829986275249081  47.47082217924686  -1.645198887455607  -17.806224681789384  22.824872681926518  0.000000
0.093  0.000000  0.000000  0.000000  -28.738412893125123  -0.1760252553956057  3.185578546099041  49.35390962026592  3.533524526509115  -7.01932201155966  47.453029486198005  -1.5841545912731778  -17.644020800508248  22.753774657935747  0.000000
0.124  0.000000  0.000000  0.000000  -28.779276131946645  -0.25660581905084484  3.3201810652245887  49.3274410400667  3.3971525603645136  -7.196741943438137  47.31820826082051  -1.4420478867741258  -17.5186701899818  22.653505112987315  0.000000
0.155  0.000000  0.000000  0.000000  -28.82048986849649  -0.33391353225244363  3.4559381009710894  49.32180259159507  3.255682885659185  -7.352139874050144  47.11615150901851  -1.1898798934743564  -17.377573035879507  22.54195925846082  0.000000
0.186  0.000000  0.000000  0.000000  -28.84297262530916  -0.3993804879909394  3.595188089796151  49.29999415913194  3.1147201931052413  -7.50544673324529  46.80062140894798  -0.8149856440368187  -17.262055975354034  22.405977012147066  0.000000
0.217  0.000000  0.000000  0.000000  -28.899650997737428  -0.4652901190731987  3.726926176517267  49.270558324934065  3.0221101623111943  -7.67839673213382  46.39747389594528  -0.28535184641390365  -17.116858201234177  22.221046337615977  0.000000
0.248  0.000000  0.000000  0.000000  -28.992879138159154  -0.5361269788838459  3.7812063965436  49.198292988830985  2.9919496426474637  -7.83635434316617  45.859346222714954  0.4392604559401011  -16.902568761232153  21.982235925228466  0.000000
0.279  0.000000  0.000000  0.000000  -29.08849228041167  -0.5915467669272769  3.791195394854658  49.115552900463285  2.931559540953162  -7.968079651491097  45.11278945653743  1.3522250448626647  -16.60846379076249  21.723363601991956  0.000000
0.31  0.000000  0.000000  0.000000  -29.14634344944056  -0.6174388381791361  3.8478091611905203  49.026945367386524  2.8006580921503246  -8.09402081431505  44.146377023105906  2.352680869544483  -16.26665135084182  21.517930288644056  0.000000
0.34099999999999997  0.000000  0.000000  0.000000  -29.178518941703608  -0.6211125091529438  3.954081761632208  48.96115824237691  2.663666997039265  -8.22559924018592  43.04148416035383  3.3886818144295616  -15.890397432968735  21.377218873958235  0.000000
0.372  0.000000  0.000000  0.000000  -29.221538285708906  -0.6239515233951748  4.07444541769967  48.921460580090226  2.5831982856351137  -8.345025915971014  41.86963710288471  4.4646509277598625  -15.493845936577245  21.27414162244524  0.000000
0.403  0.000000  0.000000  0.000000  -29.30322254452357  -0.6445997568643517  4.161905432256999  48.948437595518875  2.5719580294545232  -8.403451883553647  40.63169210010958  5.613603221777757  -15.13659355517306  21.193256328808022  0.000000
0.434  0.000000  0.000000  0.000000  -29.427401339197683  -0.6826133272112082  4.201948949760692  49.071781984911794  2.611266723838268  -8.356238829552398  39.32589309119435  6.846889706256671  -14.862088533173152  21.153458842194354  0.000000
0.46499999999999997  0.000000  0.000000  0.000000  -29.570346345686932  -0.7295481139222504  4.206775995905359  49.28984338932742  2.6786130508822983  -8.208323783368892  37.97039628268003  8.162488731002187  -14.67812373608026  21.175009697850438  0.000000
